<?xml version="1.0" encoding="UTF-8"?>
<svg xmlns="http://www.w3.org/2000/svg" viewBox="0 0 814 1000" width="814" height="1000">
  <path d="M788.1 340.9c-5.8 4.5-108.2 62.2-108.2 190.5 0 148.4 130.3 200.9 134.2 202.2-.6 3.2-20.7 71.9-68.7 141.9-42.8 61.6-87.5 123.1-155.5 123.1s-85.5-39.5-164-39.5c-76.5 0-103.7 40.8-165.9 40.8s-105.6-57.8-155.5-127.4c-58.4-81.6-105.6-208.4-105.6-328.6 0-193 125.5-295.6 248.9-295.6 65.6 0 120.3 43 161.4 43s100.2-45.6 174.5-45.6c28.2 0 129.6 2.5 196.4 95.2zM554.1 159.4c31.1-36.9 53.1-88.1 53.1-139.4 0-7.1-.6-14.3-1.9-20.1-50.6 1.9-110.8 33.7-147.1 75.8-28.2 32.4-55.8 83.6-55.8 135.6 0 7.8.6 15.7 1.3 18.2 2.5.6 6.4.6 10.2.6 45.9 0 103.6-30.4 140.2-70.7z"/>
</svg>
