<svg xmlns="http://www.w3.org/2000/svg" viewBox="0 0 24 24" width="24" height="24"><rect width="24" height="24" rx="4" fill="#202123"/><g transform="translate(2,1.5) scale(0.833)"><path d="M22.282 9.821a5.985 5.985 0 0 0-.516-4.91 6.046 6.046 0 0 0-6.51-2.9A6.065 6.065 0 0 0 4.981 4.18a5.998 5.998 0 0 0-3.998 2.9 6.042 6.042 0 0 0 .743 7.097 5.98 5.98 0 0 0 .51 4.911 6.04 6.04 0 0 0 6.51 2.9A5.99 5.99 0 0 0 13.275 24a6.044 6.044 0 0 0 5.745-4.18 5.99 5.99 0 0 0 3.997-2.9 6.034 6.034 0 0 0-.735-7.099zM13.275 22.43a4.476 4.476 0 0 1-2.876-1.04l.141-.081 4.779-2.758a.795.795 0 0 0 .392-.681v-6.737l2.02 1.168a.071.071 0 0 1 .038.052v5.583a4.504 4.504 0 0 1-4.494 4.494zM3.397 18.36a4.467 4.467 0 0 1-.535-3.014l.142.085 4.783 2.759a.771.771 0 0 0 .78 0l5.843-3.369v2.332a.08.08 0 0 1-.033.062L9.54 19.986a4.5 4.5 0 0 1-6.143-1.626zM2.197 7.937a4.464 4.464 0 0 1 2.338-1.963v5.686a.774.774 0 0 0 .388.676l5.815 3.355-2.02 1.168a.075.075 0 0 1-.069.006l-4.828-2.79A4.5 4.5 0 0 1 2.197 7.94zm17.09 3.978l-5.843-3.37 2.02-1.166a.074.074 0 0 1 .069-.006l4.828 2.787a4.495 4.495 0 0 1-.696 8.112v-5.678a.79.79 0 0 0-.378-.68zm2.01-3.026l-.141-.085-4.774-2.782a.776.776 0 0 0-.785 0L9.754 9.39V7.06a.08.08 0 0 1 .033-.063l4.836-2.79a4.497 4.497 0 0 1 6.674 4.66zm-12.64 4.135l-2.02-1.164a.08.08 0 0 1-.038-.057V6.22a4.497 4.497 0 0 1 7.375-3.453l-.142.08L8.704 5.6a.795.795 0 0 0-.393.681z" fill="#fff"/></g></svg>